<svg id="visual" viewBox="0 0 900 600" width="900" height="600" xmlns="http://www.w3.org/2000/svg" xmlns:xlink="http://www.w3.org/1999/xlink" version="1.1"><rect x="0" y="0" width="900" height="600" fill="#fff"></rect><path d="M0 143L10.7 146.8C21.3 150.7 42.7 158.3 64.2 166.8C85.7 175.3 107.3 184.7 128.8 186.3C150.3 188 171.7 182 193 179C214.3 176 235.7 176 257 173.2C278.3 170.3 299.7 164.7 321.2 159.8C342.7 155 364.3 151 385.8 158.3C407.3 165.7 428.7 184.3 450 191.7C471.3 199 492.7 195 514.2 193.5C535.7 192 557.3 193 578.8 190.5C600.3 188 621.7 182 643 176.5C664.3 171 685.7 166 707 164C728.3 162 749.7 163 771.2 159.2C792.7 155.3 814.3 146.7 835.8 142.3C857.3 138 878.7 138 889.3 138L900 138L900 0L889.3 0C878.7 0 857.3 0 835.8 0C814.3 0 792.7 0 771.2 0C749.7 0 728.3 0 707 0C685.7 0 664.3 0 643 0C621.7 0 600.3 0 578.8 0C557.3 0 535.7 0 514.2 0C492.7 0 471.3 0 450 0C428.7 0 407.3 0 385.8 0C364.3 0 342.7 0 321.2 0C299.7 0 278.3 0 257 0C235.7 0 214.3 0 193 0C171.7 0 150.3 0 128.8 0C107.3 0 85.7 0 64.2 0C42.7 0 21.3 0 10.7 0L0 0Z" fill="#944f96"></path><path d="M0 123L10.7 122.2C21.3 121.3 42.7 119.7 64.2 121.3C85.7 123 107.3 128 128.8 127C150.3 126 171.7 119 193 122.8C214.3 126.7 235.7 141.3 257 142.3C278.3 143.3 299.7 130.7 321.2 126.3C342.7 122 364.3 126 385.8 132.3C407.3 138.7 428.7 147.3 450 147.3C471.3 147.3 492.7 138.7 514.2 135.3C535.7 132 557.3 134 578.8 132.7C600.3 131.3 621.7 126.7 643 132.8C664.3 139 685.7 156 707 163.7C728.3 171.3 749.7 169.7 771.2 169.2C792.7 168.7 814.3 169.3 835.8 161.3C857.3 153.3 878.7 136.7 889.3 128.3L900 120L900 0L889.3 0C878.7 0 857.3 0 835.8 0C814.3 0 792.7 0 771.2 0C749.7 0 728.3 0 707 0C685.7 0 664.3 0 643 0C621.7 0 600.3 0 578.8 0C557.3 0 535.7 0 514.2 0C492.7 0 471.3 0 450 0C428.7 0 407.3 0 385.8 0C364.3 0 342.7 0 321.2 0C299.7 0 278.3 0 257 0C235.7 0 214.3 0 193 0C171.7 0 150.3 0 128.8 0C107.3 0 85.7 0 64.2 0C42.7 0 21.3 0 10.7 0L0 0Z" fill="#774986"></path><path d="M0 91L10.7 93C21.3 95 42.7 99 64.2 104.8C85.7 110.7 107.3 118.3 128.8 118.5C150.3 118.7 171.7 111.3 193 106.8C214.3 102.3 235.7 100.7 257 105.7C278.3 110.7 299.7 122.3 321.2 124.3C342.7 126.3 364.3 118.7 385.8 114.7C407.3 110.7 428.7 110.3 450 112.8C471.3 115.3 492.7 120.7 514.2 125.5C535.7 130.3 557.3 134.7 578.8 136.3C600.3 138 621.7 137 643 135.7C664.3 134.3 685.7 132.7 707 129C728.3 125.3 749.7 119.7 771.2 118.8C792.7 118 814.3 122 835.8 125.7C857.3 129.3 878.7 132.7 889.3 134.3L900 136L900 0L889.3 0C878.7 0 857.3 0 835.8 0C814.3 0 792.7 0 771.2 0C749.7 0 728.3 0 707 0C685.7 0 664.3 0 643 0C621.7 0 600.3 0 578.8 0C557.3 0 535.7 0 514.2 0C492.7 0 471.3 0 450 0C428.7 0 407.3 0 385.8 0C364.3 0 342.7 0 321.2 0C299.7 0 278.3 0 257 0C235.7 0 214.3 0 193 0C171.7 0 150.3 0 128.8 0C107.3 0 85.7 0 64.2 0C42.7 0 21.3 0 10.7 0L0 0Z" fill="#5d4173"></path><path d="M0 96L10.7 93.2C21.3 90.3 42.7 84.7 64.2 85.8C85.7 87 107.3 95 128.8 94.3C150.3 93.7 171.7 84.3 193 84.5C214.3 84.7 235.7 94.3 257 100.3C278.3 106.3 299.7 108.7 321.2 107.3C342.7 106 364.3 101 385.8 94.8C407.3 88.7 428.7 81.3 450 82.7C471.3 84 492.7 94 514.2 93.3C535.7 92.7 557.3 81.3 578.8 76.5C600.3 71.7 621.7 73.3 643 73.7C664.3 74 685.7 73 707 76.2C728.3 79.3 749.7 86.7 771.2 86.7C792.7 86.7 814.3 79.3 835.8 77.7C857.3 76 878.7 80 889.3 82L900 84L900 0L889.3 0C878.7 0 857.3 0 835.8 0C814.3 0 792.7 0 771.2 0C749.7 0 728.3 0 707 0C685.7 0 664.3 0 643 0C621.7 0 600.3 0 578.8 0C557.3 0 535.7 0 514.2 0C492.7 0 471.3 0 450 0C428.7 0 407.3 0 385.8 0C364.3 0 342.7 0 321.2 0C299.7 0 278.3 0 257 0C235.7 0 214.3 0 193 0C171.7 0 150.3 0 128.8 0C107.3 0 85.7 0 64.2 0C42.7 0 21.3 0 10.7 0L0 0Z" fill="#46395f"></path><path d="M0 59L10.7 60C21.3 61 42.7 63 64.2 63.7C85.7 64.3 107.3 63.7 128.8 60.3C150.3 57 171.7 51 193 53.8C214.3 56.7 235.7 68.3 257 74.2C278.3 80 299.7 80 321.2 79.3C342.7 78.7 364.3 77.3 385.8 74.3C407.3 71.3 428.7 66.7 450 63.5C471.3 60.3 492.7 58.7 514.2 61.5C535.7 64.3 557.3 71.7 578.8 74C600.3 76.3 621.7 73.7 643 67.5C664.3 61.3 685.7 51.7 707 48.5C728.3 45.3 749.7 48.7 771.2 54.8C792.7 61 814.3 70 835.8 68C857.3 66 878.7 53 889.3 46.5L900 40L900 0L889.3 0C878.7 0 857.3 0 835.8 0C814.3 0 792.7 0 771.2 0C749.7 0 728.3 0 707 0C685.7 0 664.3 0 643 0C621.7 0 600.3 0 578.8 0C557.3 0 535.7 0 514.2 0C492.7 0 471.3 0 450 0C428.7 0 407.3 0 385.8 0C364.3 0 342.7 0 321.2 0C299.7 0 278.3 0 257 0C235.7 0 214.3 0 193 0C171.7 0 150.3 0 128.8 0C107.3 0 85.7 0 64.2 0C42.7 0 21.3 0 10.7 0L0 0Z" fill="#342f49"></path><path d="M0 38L10.7 39.2C21.3 40.3 42.7 42.7 64.2 39.5C85.7 36.3 107.3 27.7 128.8 28.2C150.3 28.7 171.7 38.3 193 41.2C214.3 44 235.7 40 257 37.8C278.3 35.7 299.7 35.3 321.2 32.5C342.7 29.7 364.3 24.3 385.8 24.2C407.3 24 428.7 29 450 29.2C471.3 29.3 492.7 24.7 514.2 27.2C535.7 29.7 557.3 39.3 578.8 41.3C600.3 43.3 621.7 37.7 643 35C664.3 32.3 685.7 32.7 707 34.2C728.3 35.7 749.7 38.3 771.2 40.2C792.7 42 814.3 43 835.8 42C857.3 41 878.7 38 889.3 36.5L900 35L900 0L889.3 0C878.7 0 857.3 0 835.8 0C814.3 0 792.7 0 771.2 0C749.7 0 728.3 0 707 0C685.7 0 664.3 0 643 0C621.7 0 600.3 0 578.8 0C557.3 0 535.7 0 514.2 0C492.7 0 471.3 0 450 0C428.7 0 407.3 0 385.8 0C364.3 0 342.7 0 321.2 0C299.7 0 278.3 0 257 0C235.7 0 214.3 0 193 0C171.7 0 150.3 0 128.8 0C107.3 0 85.7 0 64.2 0C42.7 0 21.3 0 10.7 0L0 0Z" fill="#252533"></path></svg>