<svg id="visual" viewBox="0 0 900 450" width="900" height="450" xmlns="http://www.w3.org/2000/svg" xmlns:xlink="http://www.w3.org/1999/xlink" version="1.1"><rect x="0" y="0" width="900" height="450" fill="#fff"></rect><path d="M0 183L21.5 192.2C43 201.3 86 219.7 128.8 222.7C171.7 225.7 214.3 213.3 257.2 213.2C300 213 343 225 385.8 224.3C428.7 223.7 471.3 210.3 514.2 205.5C557 200.7 600 204.3 642.8 207.8C685.7 211.3 728.3 214.7 771.2 214.3C814 214 857 210 878.5 208L900 206L900 451L878.5 451C857 451 814 451 771.2 451C728.3 451 685.7 451 642.8 451C600 451 557 451 514.2 451C471.3 451 428.7 451 385.8 451C343 451 300 451 257.2 451C214.3 451 171.7 451 128.8 451C86 451 43 451 21.5 451L0 451Z" fill="#944f96"></path><path d="M0 289L21.5 283.8C43 278.7 86 268.3 128.8 262.2C171.7 256 214.3 254 257.2 248.2C300 242.3 343 232.7 385.8 236.3C428.7 240 471.3 257 514.2 265.3C557 273.7 600 273.3 642.8 275.3C685.7 277.3 728.3 281.7 771.2 282.8C814 284 857 282 878.5 281L900 280L900 451L878.5 451C857 451 814 451 771.2 451C728.3 451 685.7 451 642.8 451C600 451 557 451 514.2 451C471.3 451 428.7 451 385.8 451C343 451 300 451 257.2 451C214.3 451 171.7 451 128.8 451C86 451 43 451 21.5 451L0 451Z" fill="#774986"></path><path d="M0 267L21.5 266.7C43 266.3 86 265.7 128.8 267.3C171.7 269 214.3 273 257.2 282.3C300 291.7 343 306.3 385.8 314.3C428.7 322.3 471.3 323.7 514.2 313.8C557 304 600 283 642.8 283.5C685.7 284 728.3 306 771.2 309.8C814 313.7 857 299.3 878.5 292.2L900 285L900 451L878.5 451C857 451 814 451 771.2 451C728.3 451 685.7 451 642.8 451C600 451 557 451 514.2 451C471.3 451 428.7 451 385.8 451C343 451 300 451 257.2 451C214.3 451 171.7 451 128.8 451C86 451 43 451 21.5 451L0 451Z" fill="#5d4173"></path><path d="M0 311L21.5 311.8C43 312.7 86 314.3 128.8 316.8C171.7 319.3 214.3 322.7 257.2 324C300 325.3 343 324.7 385.8 322.2C428.7 319.7 471.3 315.3 514.2 317.7C557 320 600 329 642.8 336.2C685.7 343.3 728.3 348.7 771.2 347.7C814 346.7 857 339.3 878.5 335.7L900 332L900 451L878.5 451C857 451 814 451 771.2 451C728.3 451 685.7 451 642.8 451C600 451 557 451 514.2 451C471.3 451 428.7 451 385.8 451C343 451 300 451 257.2 451C214.3 451 171.7 451 128.8 451C86 451 43 451 21.5 451L0 451Z" fill="#46395f"></path><path d="M0 344L21.5 349C43 354 86 364 128.8 372.2C171.7 380.3 214.3 386.7 257.2 382.5C300 378.3 343 363.7 385.8 361.7C428.7 359.7 471.3 370.3 514.2 372.3C557 374.3 600 367.7 642.8 365.2C685.7 362.7 728.3 364.3 771.2 366.5C814 368.7 857 371.3 878.5 372.7L900 374L900 451L878.5 451C857 451 814 451 771.2 451C728.3 451 685.7 451 642.8 451C600 451 557 451 514.2 451C471.3 451 428.7 451 385.8 451C343 451 300 451 257.2 451C214.3 451 171.7 451 128.8 451C86 451 43 451 21.5 451L0 451Z" fill="#342f49"></path><path d="M0 409L21.5 405.5C43 402 86 395 128.8 390.7C171.7 386.3 214.3 384.7 257.2 383.7C300 382.7 343 382.3 385.8 385C428.7 387.7 471.3 393.3 514.2 396.7C557 400 600 401 642.8 405.5C685.7 410 728.3 418 771.2 420.8C814 423.7 857 421.3 878.5 420.2L900 419L900 451L878.5 451C857 451 814 451 771.2 451C728.3 451 685.7 451 642.8 451C600 451 557 451 514.2 451C471.3 451 428.7 451 385.8 451C343 451 300 451 257.2 451C214.3 451 171.7 451 128.8 451C86 451 43 451 21.5 451L0 451Z" fill="#252533"></path></svg>